<svg xmlns="http://www.w3.org/2000/svg" version="1.1" xmlns:xlink="http://www.w3.org/1999/xlink" width="512" height="512" x="0" y="0" viewBox="0 0 64 64" style="enable-background:new 0 0 512 512" xml:space="preserve" class=""><g><path d="M3 34.994a1 1 0 0 1-1-1v-3.867a1 1 0 1 1 2 0v3.867a1 1 0 0 1-1 1zM17 34.994a1 1 0 0 1-1-1v-4.5a1 1 0 1 1 2 0v4.5a1 1 0 0 1-1 1z" fill="#ffffff" opacity="1" data-original="#000000" class=""></path><path d="M17 30.494a1 1 0 0 1-1-1c0-3.584-2.916-6.5-6.501-6.5A6.507 6.507 0 0 0 3 29.494a1 1 0 1 1-2 0c0-4.687 3.813-8.5 8.499-8.5 4.688 0 8.501 3.813 8.501 8.5a1 1 0 0 1-1 1z" fill="#ffffff" opacity="1" data-original="#000000" class=""></path><path d="M17.001 31.865a.999.999 0 0 1-.795-.392c-1.931-2.522-2.456-2.313-4.414-1.538-1.879.743-4.715 1.87-9.948 1.042a1 1 0 1 1 .313-1.975c4.693.742 7.123-.223 8.899-.927 2.408-.954 4.024-1.362 6.738 2.181a1 1 0 0 1-.793 1.609z" fill="#ffffff" opacity="1" data-original="#000000" class=""></path><path d="M12.999 29.471a1 1 0 0 1-.896-1.441l2-4.072a1 1 0 0 1 1.795.881l-2 4.072a1 1 0 0 1-.899.56zM1 47.994a1 1 0 0 1-1-1c0-2.206 1.794-4 4-4a1 1 0 1 1 0 2c-1.103 0-2 .896-2 2a1 1 0 0 1-1 1z" fill="#ffffff" opacity="1" data-original="#000000" class=""></path><path d="M7 45H4a1 1 0 1 1 0-2h3a1 1 0 1 1 0 2zM1 51.998a1 1 0 0 1-1-1v-4.004a1 1 0 1 1 2 0v4.004a1 1 0 0 1-1 1zM19 47.994a1 1 0 0 1-1-1c0-1.104-.897-2-2-2a1 1 0 1 1 0-2c2.206 0 4 1.794 4 4a1 1 0 0 1-1 1z" fill="#ffffff" opacity="1" data-original="#000000" class=""></path><path d="M16 45h-3a1 1 0 1 1 0-2h3a1 1 0 1 1 0 2zM19 51.998a1 1 0 0 1-1-1v-4.004a1 1 0 1 1 2 0v4.004a1 1 0 0 1-1 1z" fill="#ffffff" opacity="1" data-original="#000000" class=""></path><path d="M19 51.998H1a1 1 0 1 1 0-2h18a1 1 0 1 1 0 2zM7 45a1 1 0 0 1-1-1v-3.684a1 1 0 1 1 2 0V44a1 1 0 0 1-1 1zM13 44.994a1 1 0 0 1-1-1v-3.678a1 1 0 1 1 2 0v3.678a1 1 0 0 1-1 1z" fill="#ffffff" opacity="1" data-original="#000000" class=""></path><path d="M10 41.99c-4.411 0-8-3.59-8-8a1 1 0 1 1 2 0c0 3.309 2.691 6 6 6s6-2.691 6-6a1 1 0 1 1 2 0c0 4.41-3.589 8-8 8zM45 47.994a1 1 0 0 1-1-1c0-2.206 1.794-4 4-4a1 1 0 1 1 0 2 2 2 0 0 0-2 2 1 1 0 0 1-1 1z" fill="#ffffff" opacity="1" data-original="#000000" class=""></path><path d="M51 45h-3a1 1 0 1 1 0-2h3a1 1 0 1 1 0 2zM45 51.998a1 1 0 0 1-1-1v-4.004a1 1 0 1 1 2 0v4.004a1 1 0 0 1-1 1zM63 47.994a1 1 0 0 1-1-1 2 2 0 0 0-2-2 1 1 0 1 1 0-2c2.206 0 4 1.794 4 4a1 1 0 0 1-1 1z" fill="#ffffff" opacity="1" data-original="#000000" class=""></path><path d="M60 45h-3a1 1 0 1 1 0-2h3a1 1 0 1 1 0 2zM63 51.998a1 1 0 0 1-1-1v-4.004a1 1 0 1 1 2 0v4.004a1 1 0 0 1-1 1z" fill="#ffffff" opacity="1" data-original="#000000" class=""></path><path d="M63 51.998H45a1 1 0 1 1 0-2h18a1 1 0 1 1 0 2zM51 45a1 1 0 0 1-1-1v-3.684a1 1 0 1 1 2 0V44a1 1 0 0 1-1 1zM57 44.994a1 1 0 0 1-1-1v-3.678a1 1 0 1 1 2 0v3.678a1 1 0 0 1-1 1zM20 58.998a1 1 0 0 1-1-1c0-3.309 2.691-6 6-6a1 1 0 1 1 0 2c-2.206 0-4 1.794-4 4a1 1 0 0 1-1 1z" fill="#ffffff" opacity="1" data-original="#000000" class=""></path><path d="M28 53.998h-3a1 1 0 1 1 0-2h3a1 1 0 1 1 0 2zM20 63a1 1 0 0 1-1-1v-4.002a1 1 0 1 1 2 0V62a1 1 0 0 1-1 1z" fill="#ffffff" opacity="1" data-original="#000000" class=""></path><path d="M21 64c-1.103 0-2-.896-2-2 0-.531.418-.914.948-.943.57-.037.992.416 1.052.942A1 1 0 0 1 21 64zM44 58.998a1 1 0 0 1-1-1c0-2.206-1.794-4-4-4a1 1 0 1 1 0-2c3.309 0 6 2.691 6 6a1 1 0 0 1-1 1z" fill="#ffffff" opacity="1" data-original="#000000" class=""></path><path d="M39 53.998h-3a1 1 0 1 1 0-2h3a1 1 0 1 1 0 2zM44 63a1 1 0 0 1-1-1v-4.002a1 1 0 1 1 2 0V62a1 1 0 0 1-1 1z" fill="#ffffff" opacity="1" data-original="#000000" class=""></path><path d="M43 64a1 1 0 1 1 0-2 1 1 0 1 1 2 0 2 2 0 0 1-2 2z" fill="#ffffff" opacity="1" data-original="#000000" class=""></path><path d="M43 64H21a1 1 0 1 1 0-2h22a1 1 0 1 1 0 2zM28 53.998a1 1 0 0 1-1-1v-3.936c0-.554.447-1 1-1s1 .446 1 1v3.936a1 1 0 0 1-1 1zM36 53.998a1 1 0 0 1-1-1v-3.936c0-.554.447-1 1-1s1 .446 1 1v3.936a1 1 0 0 1-1 1z" fill="#ffffff" opacity="1" data-original="#000000" class=""></path><path d="M31.999 50.998C26.485 50.998 22 46.514 22 41a1 1 0 1 1 2 0c0 4.41 3.588 7.998 7.999 7.998C36.411 48.998 40 45.41 40 41a1 1 0 1 1 2 0c0 5.514-4.486 9.998-10.001 9.998z" fill="#ffffff" opacity="1" data-original="#000000" class=""></path><path d="M23 42.049a1 1 0 0 1-1-1v-6.055a1 1 0 1 1 2 0v6.055a1 1 0 0 1-1 1zM41 42a1 1 0 0 1-1-1v-6.006a1 1 0 1 1 2 0V41a1 1 0 0 1-1 1z" fill="#ffffff" opacity="1" data-original="#000000" class=""></path><path d="M41 35.994a1 1 0 0 1-1-1c0-1.654-1.346-3-3-3a1 1 0 1 1 0-2c2.757 0 5 2.243 5 5a1 1 0 0 1-1 1z" fill="#ffffff" opacity="1" data-original="#000000" class=""></path><path d="M37 31.994a1 1 0 0 1-1-1v-4a1 1 0 1 1 2 0v4a1 1 0 0 1-1 1z" fill="#ffffff" opacity="1" data-original="#000000" class=""></path><path d="M37 27.994h-6a1 1 0 1 1 0-2h6a1 1 0 1 1 0 2z" fill="#ffffff" opacity="1" data-original="#000000" class=""></path><path d="M23 35.994a1 1 0 0 1-1-1c0-4.963 4.037-9 9-9a1 1 0 1 1 0 2c-3.859 0-7 3.141-7 7a1 1 0 0 1-1 1zM40.999 39.021a1.01 1.01 0 0 1-.56-.172l-3-2.024a1.004 1.004 0 0 1-.27-1.39 1.005 1.005 0 0 1 1.389-.27l3 2.025a1.002 1.002 0 0 1-.559 1.831z" fill="#ffffff" opacity="1" data-original="#000000" class=""></path><path d="M32.5 37.996c-3.612 0-6.687-1.008-6.815-1.051a1.002 1.002 0 0 1-.634-1.264c.174-.523.74-.809 1.264-.636.029.011 2.908.949 6.186.949 3.179 0 5.04-.888 5.06-.897a1.004 1.004 0 0 1 1.336.457.999.999 0 0 1-.448 1.336c-.094.048-2.263 1.106-5.949 1.106z" fill="#ffffff" opacity="1" data-original="#000000" class=""></path><path d="M23.001 39.021a1 1 0 0 1-.56-1.83l3-2.024a1 1 0 0 1 1.119 1.66l-3 2.025a1.01 1.01 0 0 1-.559.169zM2 30.99a1 1 0 0 1-1-1v-.496a1 1 0 1 1 2 0v.496a1 1 0 0 1-1 1zM47 35.002a1 1 0 0 1-1-1V29a1 1 0 1 1 2 0v5.002a1 1 0 0 1-1 1zM61 35.002a1 1 0 0 1-1-1V29a1 1 0 1 1 2 0v5.002a1 1 0 0 1-1 1z" fill="#ffffff" opacity="1" data-original="#000000" class=""></path><path d="M54 41.994c-4.411 0-8-3.588-8-7.998a1 1 0 1 1 2 0c0 3.309 2.691 5.998 6 5.998s6-2.689 6-5.998a1 1 0 1 1 2 0c0 4.41-3.589 7.998-8 7.998zM61 30a1 1 0 0 1-1-1c0-3.307-2.691-5.996-6-5.996S48 25.693 48 29a1 1 0 1 1-2 0c0-4.409 3.589-7.996 8-7.996s8 3.587 8 7.996a1 1 0 0 1-1 1z" fill="#ffffff" opacity="1" data-original="#000000" class=""></path><path d="M53.938 31.018c-2.9 0-5.256-1.069-5.354-1.115a1 1 0 0 1 .835-1.817c.021.01 2.072.933 4.52.933 2.481 0 4.646-.923 4.668-.932.506-.221 1.096.015 1.313.521s-.015 1.096-.521 1.314c-.106.045-2.572 1.096-5.461 1.096z" fill="#ffffff" opacity="1" data-original="#000000" class=""></path><path d="M61 32.004c-.254 0-.509-.097-.704-.289l-2-1.98a1.001 1.001 0 0 1 1.408-1.422l2 1.98A1.001 1.001 0 0 1 61 32.004zM47 32.023a.993.993 0 0 1-.705-.291.997.997 0 0 1-.004-1.414l2-2.01a1 1 0 1 1 1.418 1.41l-2 2.01a.994.994 0 0 1-.709.295zM10 47c-2.243 0-4-1.318-4-3.002a1 1 0 1 1 2 0C8 44.406 8.779 45 10 45s2-.594 2-1.002a1 1 0 1 1 2 0C14 45.682 12.243 47 10 47zM54 47c-2.243 0-4-1.318-4-3.002a1 1 0 1 1 2 0c0 .408.779 1.002 2 1.002s2-.594 2-1.002a1 1 0 1 1 2 0C58 45.682 56.243 47 54 47zM32 57c-2.757 0-5-1.797-5-4.006a1 1 0 1 1 2 0C29 54.081 30.374 55 32 55s3-.919 3-2.006a1 1 0 1 1 2 0C37 55.203 34.757 57 32 57zM10 51.998a1 1 0 0 1-1-1v-2a1 1 0 1 1 2 0v2a1 1 0 0 1-1 1zM52.5 51.998a1 1 0 0 1-1-1v-2a1 1 0 1 1 2 0v2a1 1 0 0 1-1 1zM55.5 51.998a1 1 0 0 1-1-1v-2a1 1 0 1 1 2 0v2a1 1 0 0 1-1 1zM32 64a1 1 0 0 1-1-1v-3a1 1 0 1 1 2 0v3a1 1 0 0 1-1 1zM35 64a1 1 0 0 1-1-1v-3a1 1 0 1 1 2 0v3a1 1 0 0 1-1 1zM29 64a1 1 0 0 1-1-1v-3a1 1 0 1 1 2 0v3a1 1 0 0 1-1 1zM32 24c-6.617 0-12-5.383-12-12S25.383 0 32 0s12 5.383 12 12-5.383 12-12 12zm0-22c-5.514 0-10 4.486-10 10s4.486 10 10 10 10-4.486 10-10S37.514 2 32 2z" fill="#ffffff" opacity="1" data-original="#000000" class=""></path><path d="M41.313 7.162a.914.914 0 0 1-.146-.011l-4.616-.678a1.002 1.002 0 0 1-.751-.547l-2.048-4.154a.999.999 0 1 1 1.793-.885l1.816 3.684 4.097.602a1 1 0 0 1-.145 1.989zM40.396 20.1a.999.999 0 0 1-.984-.831l-.803-4.684a1 1 0 0 1 .287-.886l3.361-3.271a1 1 0 1 1 1.394 1.434l-2.984 2.904.714 4.165a.998.998 0 0 1-.985 1.169zM27.778 23.152a.999.999 0 0 1-.465-1.886l4.223-2.213c.291-.152.637-.152.928 0l4.224 2.213c.489.256.68.86.422 1.35a.999.999 0 0 1-1.35.422L32 21.068l-3.759 1.97a.985.985 0 0 1-.463.114zM23.604 20.1a.998.998 0 0 1-.986-1.169l.715-4.165-2.987-2.904a1 1 0 0 1 1.394-1.434l3.364 3.271a1 1 0 0 1 .288.886l-.804 4.684a.998.998 0 0 1-.984.831zM22.688 7.162a1 1 0 0 1-.144-1.989l4.097-.602L28.455.887a1.005 1.005 0 0 1 1.34-.455c.495.244.699.844.455 1.34l-2.047 4.154a1.002 1.002 0 0 1-.752.547l-4.616.678a.944.944 0 0 1-.147.011zM34.6 15.984h-5.2a1 1 0 0 1-.951-.69l-1.606-4.941a1 1 0 0 1 .363-1.118l4.206-3.059a.996.996 0 0 1 1.176 0l4.206 3.059a.999.999 0 0 1 .363 1.118l-1.606 4.941a1 1 0 0 1-.951.69zm-4.473-2h3.746l1.156-3.56L32 8.221l-3.03 2.204z" fill="#ffffff" opacity="1" data-original="#000000" class=""></path></g></svg>